<?xml version="1.0" encoding="UTF-8" standalone="no"?>
<svg
   xml:space="preserve"
   width="16"
   height="16"
   version="1.0"
   viewBox="0 0 2.4 2.4"
   id="svg2"
   sodipodi:docname="AudioStreamPlayer.svg"
   inkscape:version="1.4 (86a8ad7, 2024-10-11)"
   xmlns:inkscape="http://www.inkscape.org/namespaces/inkscape"
   xmlns:sodipodi="http://sodipodi.sourceforge.net/DTD/sodipodi-0.dtd"
   xmlns="http://www.w3.org/2000/svg"
   xmlns:svg="http://www.w3.org/2000/svg"><defs
     id="defs2" /><sodipodi:namedview
     id="namedview2"
     pagecolor="#ffffff"
     bordercolor="#111111"
     borderopacity="1"
     inkscape:showpageshadow="0"
     inkscape:pageopacity="0"
     inkscape:pagecheckerboard="1"
     inkscape:deskcolor="#d1d1d1"
     showgrid="true"
     inkscape:zoom="12.89365"
     inkscape:cx="-6.631171"
     inkscape:cy="8.0659858"
     inkscape:window-width="1278"
     inkscape:window-height="1360"
     inkscape:window-x="-7"
     inkscape:window-y="0"
     inkscape:window-maximized="0"
     inkscape:current-layer="svg2"><inkscape:grid
       id="grid2"
       units="px"
       originx="0"
       originy="0"
       spacingx="0.075000003"
       spacingy="0.075000003"
       empcolor="#0099e5"
       empopacity="0.30196078"
       color="#0099e5"
       opacity="0.14901961"
       empspacing="5"
       enabled="true"
       visible="true"
       snapvisiblegridlinesonly="true"
       dotted="false" /></sodipodi:namedview><path
     d="M 1.2518555,0.15 A 0.1,0.1 0 0 0 1.1701175,0.1798828 L 0.6,0.75 H 0.31787109 C 0.22487109,0.75 0.15,0.817 0.15,0.9 v 0.6 c 0,0.083 0.0748711,0.15 0.16787109,0.15 H 0.6 l 0.3,0.3 V 1.0875 C 0.9,0.98362499 0.98362499,0.9 1.0875,0.9 H 1.35 V 0.25605469 A 0.106,0.106 0 0 0 1.2518555,0.15 Z"
     style="display:inline;fill:#e0e0e0;paint-order:markers stroke fill"
     id="path5" /><path
     fill="none"
     stroke="#e0e0e0"
     stroke-linecap="round"
     stroke-linejoin="round"
     stroke-width="0.165"
     d="m 1.5750001,0.52500002 c 0.225,0.075 0.225,0.30000001 0.225,0.30000001 m 0.075,-0.60000002 c 0.3,0.22500001 0.3,0.60000002 0.3,0.60000002"
     paint-order="markers stroke fill"
     id="path2"
     style="display:inline"
     sodipodi:nodetypes="cccc" /><path
     d="M 1.2,1.05 C 1.1169,1.05 1.05,1.1169 1.05,1.2 v 0.9 c 0,0.0831 0.0669,0.15 0.15,0.15 H 2.1 C 2.1831,2.25 2.25,2.1831 2.25,2.1 V 1.2 C 2.25,1.1169 2.1831,1.05 2.1,1.05 Z M 1.35,1.2 A 0.15000001,0.15000001 0 0 1 1.5,1.35 0.15000001,0.15000001 0 0 1 1.35,1.5 0.15000001,0.15000001 0 0 1 1.2,1.35 0.15000001,0.15000001 0 0 1 1.35,1.2 Z m 0.6,0.6 A 0.15000001,0.15000001 0 0 1 2.1,1.95 0.15000001,0.15000001 0 0 1 1.95,2.1 0.15000001,0.15000001 0 0 1 1.8,1.95 0.15000001,0.15000001 0 0 1 1.95,1.8 Z"
     style="display:inline;fill:#e0e0e0;fill-rule:evenodd;stroke-width:2.26771;stroke-linejoin:round;paint-order:stroke markers fill;fill-opacity:1"
     id="path7" /></svg>
